<svg xmlns="http://www.w3.org/2000/svg" version="1.1" xmlns:xlink="http://www.w3.org/1999/xlink" xmlns:svgjs="http://svgjs.com/svgjs" width="500" height="500"><svg version="1.1" id="SvgjsSvg1002" xmlns="http://www.w3.org/2000/svg" xmlns:xlink="http://www.w3.org/1999/xlink" x="0px" y="0px" viewBox="0 0 500 500" style="enable-background:new 0 0 500 500;" xml:space="preserve">
<style type="text/css">
	.st0{fill:#4D815A;}
	.st1{fill:#FFFFFF;}
	.st2{font-family:'YesevaOne-Regular';}
	.st3{font-size:70px;}
	.st4{enable-background:new    ;}
</style>
<rect class="st0" width="500" height="500"></rect>
<text transform="matrix(1 0 0 1 36.7467 259.0127)" class="st1 st2 st3" svgjs:data="{&quot;leading&quot;:&quot;1.3&quot;}">Taste Atlas</text>
<g>
	<g class="st4">
		<path class="st1" d="M42.9,293v-11.2h-3.5v-1.3H48v1.3h-3.7V293H42.9z"></path>
		<path class="st1" d="M53,293.2c-1,0-1.8-0.2-2.4-0.7c-0.6-0.5-0.8-1.1-0.8-1.8c0-0.5,0.1-0.9,0.4-1.3c0.2-0.4,0.6-0.7,1-1
			s0.9-0.5,1.5-0.6c0.6-0.1,1.2-0.2,1.8-0.2c0.2,0,0.5,0,0.7,0c0.2,0,0.5,0,0.7,0c0.3,0,0.5,0,0.8,0.1l0,1.1c-0.2,0-0.5-0.1-0.7-0.1
			c-0.2,0-0.5,0-0.7,0c-0.2,0-0.5,0-0.7,0c-0.5,0-0.9,0-1.3,0.1c-0.4,0.1-0.7,0.2-1,0.4c-0.3,0.2-0.5,0.4-0.7,0.6
			c-0.2,0.3-0.2,0.6-0.2,0.9c0,0.3,0.1,0.5,0.1,0.7c0.1,0.2,0.2,0.3,0.4,0.5c0.2,0.1,0.4,0.2,0.6,0.2c0.2,0.1,0.5,0.1,0.8,0.1
			c0.5,0,1-0.1,1.4-0.2c0.4-0.2,0.8-0.4,1-0.7c0.3-0.3,0.5-0.7,0.6-1.2c0.1-0.5,0.2-1,0.2-1.6c0-0.9-0.1-1.6-0.3-2.1
			c-0.2-0.5-0.5-0.9-0.9-1.1c-0.4-0.2-1-0.3-1.6-0.3c-0.4,0-0.9,0.1-1.3,0.2c-0.4,0.2-0.8,0.4-1.2,0.8l-0.7-0.9
			c0.4-0.4,0.9-0.7,1.5-1c0.6-0.2,1.2-0.3,1.8-0.3c0.6,0,1.1,0.1,1.6,0.2c0.5,0.1,0.9,0.4,1.3,0.7c0.4,0.3,0.6,0.8,0.8,1.4
			s0.3,1.3,0.3,2.2v4.9h-1.6v-1.5c-0.2,0.3-0.4,0.6-0.6,0.8c-0.2,0.2-0.5,0.4-0.8,0.5c-0.3,0.1-0.6,0.2-0.9,0.2
			C53.5,293.1,53.2,293.2,53,293.2z"></path>
		<path class="st1" d="M62.3,293c-0.5-0.1-0.9-0.3-1.3-0.5c-0.4-0.2-0.8-0.5-1.1-0.8l0.8-1.4l0.1-0.2l0.1,0.1c0,0.1,0.1,0.2,0.1,0.3
			c0,0.1,0.1,0.2,0.3,0.4c0.3,0.3,0.6,0.5,1,0.7c0.4,0.2,0.9,0.3,1.5,0.3c0.5,0,0.9-0.1,1.2-0.2s0.6-0.3,0.8-0.5
			c0.2-0.2,0.3-0.5,0.3-0.8c0-0.2,0-0.4-0.1-0.5c-0.1-0.2-0.2-0.3-0.4-0.4c-0.2-0.1-0.4-0.3-0.7-0.4c-0.3-0.1-0.7-0.3-1.1-0.4
			c-0.7-0.2-1.3-0.4-1.8-0.7c-0.5-0.3-0.9-0.6-1.2-0.9c-0.3-0.4-0.4-0.8-0.4-1.2c0-0.5,0.1-0.9,0.4-1.2c0.3-0.3,0.6-0.6,1.1-0.8
			s1.1-0.3,1.9-0.3c0.4,0,0.8,0,1.2,0.1c0.3,0.1,0.7,0.2,1,0.3c0.3,0.1,0.6,0.3,0.8,0.5c0.2,0.2,0.5,0.4,0.7,0.6l-0.8,1l-0.1,0.2
			l-0.1-0.1c0-0.1,0-0.2-0.1-0.3c0-0.1-0.1-0.2-0.3-0.4c-0.3-0.2-0.7-0.4-1-0.6c-0.4-0.1-0.8-0.2-1.1-0.2c-0.5,0-1,0.1-1.4,0.3
			c-0.4,0.2-0.6,0.5-0.6,0.8c0,0.2,0.1,0.4,0.2,0.6c0.1,0.2,0.4,0.4,0.8,0.6c0.4,0.2,0.9,0.4,1.6,0.6c0.8,0.2,1.4,0.5,1.8,0.7
			c0.5,0.2,0.8,0.5,1,0.8c0.2,0.3,0.3,0.7,0.3,1.1c0,0.5-0.1,1-0.4,1.4c-0.3,0.4-0.7,0.8-1.2,1s-1.3,0.4-2.1,0.4
			C63.3,293.2,62.8,293.1,62.3,293z"></path>
		<path class="st1" d="M70.1,283.9h6.6v1.2h-6.6V283.9z M73.3,292.9c-0.4-0.2-0.7-0.5-0.9-0.9c-0.2-0.4-0.3-1-0.4-1.6
			c-0.1-0.6-0.1-1.4,0-2.3l0.2-6.5l1.5-0.2l0.2,0l0,0.1c-0.1,0.1-0.1,0.2-0.2,0.3c0,0.1-0.1,0.3-0.1,0.5l-0.2,2.3l0.1,0.4l-0.1,3.3
			c0,1,0,1.8,0.1,2.4c0.1,0.6,0.3,0.9,0.5,1.1c0.2,0.2,0.6,0.3,1,0.3c0.4,0,0.8-0.1,1.2-0.3c0.3-0.2,0.7-0.4,1.1-0.7l0.4,1.1
			c-0.5,0.3-0.9,0.6-1.4,0.7s-1,0.2-1.5,0.2C74.1,293.2,73.7,293.1,73.3,292.9z"></path>
		<path class="st1" d="M84.2,293.2c-0.7,0-1.3-0.1-1.8-0.3c-0.5-0.2-1-0.5-1.4-0.9c-0.4-0.4-0.7-0.9-0.9-1.5c-0.2-0.6-0.3-1.3-0.3-2
			c0-0.8,0.1-1.5,0.3-2c0.2-0.6,0.5-1.1,0.9-1.5s0.8-0.7,1.3-0.9s1.1-0.3,1.6-0.3c0.5,0,1,0.1,1.5,0.3c0.5,0.2,0.8,0.4,1.2,0.8
			s0.6,0.8,0.8,1.3c0.2,0.5,0.3,1.2,0.3,1.9c0,0.1,0,0.2,0,0.3c0,0.1,0,0.2,0,0.3h-6.5c0,0.6,0.1,1.1,0.3,1.5c0.2,0.4,0.4,0.8,0.7,1
			c0.3,0.3,0.6,0.5,1,0.6s0.8,0.2,1.2,0.2c0.3,0,0.6,0,0.9-0.1c0.3-0.1,0.5-0.2,0.8-0.3s0.5-0.3,0.7-0.6l0.8,0.8
			c-0.3,0.3-0.5,0.6-0.9,0.8c-0.3,0.2-0.7,0.4-1.1,0.5C85.1,293.1,84.6,293.2,84.2,293.2z M81.2,287.5h5c0-0.4-0.1-0.8-0.2-1.1
			c-0.1-0.3-0.3-0.6-0.5-0.9c-0.2-0.2-0.5-0.4-0.7-0.6c-0.3-0.1-0.6-0.2-1-0.2c-0.3,0-0.6,0.1-0.9,0.2c-0.3,0.1-0.5,0.3-0.8,0.5
			c-0.2,0.2-0.4,0.5-0.6,0.9C81.3,286.6,81.2,287.1,81.2,287.5z"></path>
		<path class="st1" d="M100.1,283.9h6.6v1.2h-6.6V283.9z M103.3,292.9c-0.4-0.2-0.7-0.5-0.9-0.9c-0.2-0.4-0.3-1-0.4-1.6
			c-0.1-0.6-0.1-1.4,0-2.3l0.2-6.5l1.5-0.2l0.2,0l0,0.1c-0.1,0.1-0.1,0.2-0.2,0.3c0,0.1-0.1,0.3-0.1,0.5l-0.2,2.3l0.1,0.4l-0.1,3.3
			c0,1,0,1.8,0.1,2.4c0.1,0.6,0.3,0.9,0.5,1.1c0.2,0.2,0.6,0.3,1,0.3c0.4,0,0.8-0.1,1.2-0.3c0.3-0.2,0.7-0.4,1.1-0.7l0.4,1.1
			c-0.5,0.3-0.9,0.6-1.4,0.7s-1,0.2-1.5,0.2C104.1,293.2,103.7,293.1,103.3,292.9z"></path>
		<path class="st1" d="M110.2,279.7h1.4h0.2v0.1c-0.1,0.1-0.1,0.2-0.1,0.3s0,0.3,0,0.5v4.9c0.2-0.4,0.5-0.7,0.9-1s0.7-0.5,1-0.6
			c0.4-0.2,0.7-0.2,1.1-0.2c0.5,0,1,0.1,1.5,0.4s0.7,0.7,1,1.2c0.2,0.6,0.4,1.3,0.4,2.2v5.5H116v-5.5c0-0.6-0.1-1.1-0.2-1.5
			c-0.1-0.4-0.3-0.7-0.6-0.8c-0.3-0.2-0.5-0.2-0.9-0.2c-0.2,0-0.5,0-0.7,0.1s-0.5,0.2-0.7,0.4c-0.2,0.2-0.4,0.4-0.6,0.6
			c-0.2,0.2-0.3,0.5-0.4,0.8c-0.1,0.3-0.2,0.6-0.2,1v5.2h-1.4V279.7z"></path>
		<path class="st1" d="M124.2,293.2c-0.7,0-1.3-0.1-1.8-0.3c-0.5-0.2-1-0.5-1.4-0.9c-0.4-0.4-0.7-0.9-0.9-1.5
			c-0.2-0.6-0.3-1.3-0.3-2c0-0.8,0.1-1.5,0.3-2c0.2-0.6,0.5-1.1,0.9-1.5s0.8-0.7,1.3-0.9s1.1-0.3,1.6-0.3c0.5,0,1,0.1,1.5,0.3
			c0.5,0.2,0.8,0.4,1.2,0.8s0.6,0.8,0.8,1.3c0.2,0.5,0.3,1.2,0.3,1.9c0,0.1,0,0.2,0,0.3c0,0.1,0,0.2,0,0.3h-6.5
			c0,0.6,0.1,1.1,0.3,1.5c0.2,0.4,0.4,0.8,0.7,1c0.3,0.3,0.6,0.5,1,0.6s0.8,0.2,1.2,0.2c0.3,0,0.6,0,0.9-0.1
			c0.3-0.1,0.5-0.2,0.8-0.3s0.5-0.3,0.7-0.6l0.8,0.8c-0.3,0.3-0.5,0.6-0.9,0.8c-0.3,0.2-0.7,0.4-1.1,0.5
			C125.1,293.1,124.6,293.2,124.2,293.2z M121.2,287.5h5c0-0.4-0.1-0.8-0.2-1.1c-0.1-0.3-0.3-0.6-0.5-0.9c-0.2-0.2-0.5-0.4-0.7-0.6
			c-0.3-0.1-0.6-0.2-1-0.2c-0.3,0-0.6,0.1-0.9,0.2c-0.3,0.1-0.5,0.3-0.8,0.5c-0.2,0.2-0.4,0.5-0.6,0.9
			C121.3,286.6,121.2,287.1,121.2,287.5z"></path>
		<path class="st1" d="M141.1,293l-2-12.5h1.3l1.3,8.4l2-7.5h0.4l2,7.5l1.1-8.5h1.2l-2,12.5H146l-2.1-8.1l-2.2,8.1H141.1z"></path>
		<path class="st1" d="M153.7,293.2c-0.8,0-1.6-0.2-2.2-0.6c-0.6-0.4-1.1-1-1.5-1.7c-0.4-0.7-0.5-1.5-0.5-2.5c0-0.9,0.2-1.8,0.5-2.5
			c0.4-0.7,0.9-1.3,1.5-1.7c0.6-0.4,1.4-0.6,2.2-0.6s1.6,0.2,2.2,0.6c0.6,0.4,1.1,1,1.5,1.7c0.4,0.7,0.5,1.5,0.5,2.5
			c0,0.9-0.2,1.7-0.5,2.5c-0.4,0.7-0.9,1.3-1.5,1.7C155.3,293,154.6,293.2,153.7,293.2z M153.7,292c0.5,0,1-0.2,1.4-0.5
			s0.7-0.7,1-1.3c0.2-0.5,0.4-1.1,0.4-1.8s-0.1-1.3-0.4-1.8c-0.2-0.5-0.6-0.9-1-1.2c-0.4-0.3-0.9-0.4-1.4-0.4c-0.5,0-1,0.1-1.4,0.4
			c-0.4,0.3-0.7,0.7-1,1.2c-0.2,0.5-0.4,1.1-0.4,1.8s0.1,1.3,0.4,1.8s0.6,1,1,1.3S153.2,292,153.7,292z"></path>
		<path class="st1" d="M161.1,283.9h1.5l-0.1,2.7l-0.2-0.3c0.1-0.4,0.2-0.8,0.4-1.1c0.2-0.3,0.4-0.6,0.7-0.8
			c0.3-0.2,0.6-0.4,0.9-0.5c0.3-0.1,0.7-0.2,1-0.2c0.5,0,0.9,0.1,1.3,0.2s0.8,0.4,1.1,0.8l-0.6,1.1l-0.1,0.2l-0.1-0.1
			c0-0.1-0.1-0.2-0.1-0.3c-0.1-0.1-0.2-0.2-0.3-0.3c-0.2-0.1-0.4-0.2-0.6-0.3c-0.2,0-0.4-0.1-0.6-0.1c-0.3,0-0.7,0.1-1,0.2
			c-0.3,0.1-0.6,0.3-0.9,0.6c-0.3,0.3-0.5,0.6-0.6,1s-0.2,0.9-0.2,1.5v4.8h-1.5V283.9z"></path>
		<path class="st1" d="M170.3,293v-1.2h2.7v-11h-2.6v-1.2h4v12.1h2.7v1.2H170.3z"></path>
		<path class="st1" d="M182.1,292.9c-0.4-0.2-0.9-0.5-1.2-0.9c-0.4-0.4-0.7-0.9-0.9-1.5c-0.2-0.6-0.3-1.3-0.3-2.1
			c0-0.8,0.1-1.5,0.3-2.1c0.2-0.6,0.5-1.1,0.9-1.4c0.4-0.4,0.8-0.7,1.2-0.8s0.9-0.3,1.4-0.3c0.4,0,0.8,0.1,1.2,0.2
			c0.3,0.1,0.6,0.3,0.9,0.5c0.3,0.2,0.5,0.5,0.6,0.8v-5.5h1.3h0.2v0.1c-0.1,0.1-0.1,0.2-0.1,0.3c0,0.1,0,0.3,0,0.5l0,11
			c0,0.2,0,0.5,0,0.7s0.1,0.5,0.2,0.7h-1.4c-0.1-0.2-0.1-0.3-0.1-0.5c0-0.2,0-0.3,0-0.5c0-0.2,0-0.3,0-0.5c-0.2,0.3-0.4,0.6-0.7,0.8
			c-0.3,0.2-0.6,0.4-0.9,0.6c-0.3,0.1-0.7,0.2-1.1,0.2C183,293.2,182.5,293.1,182.1,292.9z M184.8,291.6c0.3-0.2,0.6-0.4,0.7-0.8
			c0.2-0.3,0.3-0.7,0.4-1.1c0.1-0.4,0.1-0.9,0.1-1.4c0-0.7-0.1-1.3-0.3-1.8c-0.2-0.5-0.4-1-0.8-1.3c-0.4-0.3-0.9-0.5-1.4-0.5
			c-0.4,0-0.8,0.1-1.1,0.2c-0.3,0.2-0.6,0.4-0.8,0.7c-0.2,0.3-0.4,0.6-0.5,1c-0.1,0.4-0.2,0.9-0.2,1.4c0,0.8,0.1,1.4,0.3,2
			c0.2,0.6,0.5,1,0.9,1.3s0.9,0.5,1.4,0.5C184.1,291.9,184.5,291.8,184.8,291.6z"></path>
	</g>
</g>
<rect id="SvgjsRect1001" x="197.7" y="286" class="st1" width="231" height="2"></rect>
<text transform="matrix(1 0 0 1 36.7467 259.0127)" class="st1 st2 st3" svgjs:data="{&quot;leading&quot;:&quot;1.3&quot;}">Taste Atlas</text>
<g>
	<g class="st4">
		<path class="st1" d="M42.9,293v-11.2h-3.5v-1.3H48v1.3h-3.7V293H42.9z"></path>
		<path class="st1" d="M53,293.2c-1,0-1.8-0.2-2.4-0.7c-0.6-0.5-0.8-1.1-0.8-1.8c0-0.5,0.1-0.9,0.4-1.3c0.2-0.4,0.6-0.7,1-1
			s0.9-0.5,1.5-0.6c0.6-0.1,1.2-0.2,1.8-0.2c0.2,0,0.5,0,0.7,0c0.2,0,0.5,0,0.7,0c0.3,0,0.5,0,0.8,0.1l0,1.1c-0.2,0-0.5-0.1-0.7-0.1
			c-0.2,0-0.5,0-0.7,0c-0.2,0-0.5,0-0.7,0c-0.5,0-0.9,0-1.3,0.1c-0.4,0.1-0.7,0.2-1,0.4c-0.3,0.2-0.5,0.4-0.7,0.6
			c-0.2,0.3-0.2,0.6-0.2,0.9c0,0.3,0.1,0.5,0.1,0.7c0.1,0.2,0.2,0.3,0.4,0.5c0.2,0.1,0.4,0.2,0.6,0.2c0.2,0.1,0.5,0.1,0.8,0.1
			c0.5,0,1-0.1,1.4-0.2c0.4-0.2,0.8-0.4,1-0.7c0.3-0.3,0.5-0.7,0.6-1.2c0.1-0.5,0.2-1,0.2-1.6c0-0.9-0.1-1.6-0.3-2.1
			c-0.2-0.5-0.5-0.9-0.9-1.1c-0.4-0.2-1-0.3-1.6-0.3c-0.4,0-0.9,0.1-1.3,0.2c-0.4,0.2-0.8,0.4-1.2,0.8l-0.7-0.9
			c0.4-0.4,0.9-0.7,1.5-1c0.6-0.2,1.2-0.3,1.8-0.3c0.6,0,1.1,0.1,1.6,0.2c0.5,0.1,0.9,0.4,1.3,0.7c0.4,0.3,0.6,0.8,0.8,1.4
			s0.3,1.3,0.3,2.2v4.9h-1.6v-1.5c-0.2,0.3-0.4,0.6-0.6,0.8c-0.2,0.2-0.5,0.4-0.8,0.5c-0.3,0.1-0.6,0.2-0.9,0.2
			C53.5,293.1,53.2,293.2,53,293.2z"></path>
		<path class="st1" d="M62.3,293c-0.5-0.1-0.9-0.3-1.3-0.5c-0.4-0.2-0.8-0.5-1.1-0.8l0.8-1.4l0.1-0.2l0.1,0.1c0,0.1,0.1,0.2,0.1,0.3
			c0,0.1,0.1,0.2,0.3,0.4c0.3,0.3,0.6,0.5,1,0.7c0.4,0.2,0.9,0.3,1.5,0.3c0.5,0,0.9-0.1,1.2-0.2s0.6-0.3,0.8-0.5
			c0.2-0.2,0.3-0.5,0.3-0.8c0-0.2,0-0.4-0.1-0.5c-0.1-0.2-0.2-0.3-0.4-0.4c-0.2-0.1-0.4-0.3-0.7-0.4c-0.3-0.1-0.7-0.3-1.1-0.4
			c-0.7-0.2-1.3-0.4-1.8-0.7c-0.5-0.3-0.9-0.6-1.2-0.9c-0.3-0.4-0.4-0.8-0.4-1.2c0-0.5,0.1-0.9,0.4-1.2c0.3-0.3,0.6-0.6,1.1-0.8
			s1.1-0.3,1.9-0.3c0.4,0,0.8,0,1.2,0.1c0.3,0.1,0.7,0.2,1,0.3c0.3,0.1,0.6,0.3,0.8,0.5c0.2,0.2,0.5,0.4,0.7,0.6l-0.8,1l-0.1,0.2
			l-0.1-0.1c0-0.1,0-0.2-0.1-0.3c0-0.1-0.1-0.2-0.3-0.4c-0.3-0.2-0.7-0.4-1-0.6c-0.4-0.1-0.8-0.2-1.1-0.2c-0.5,0-1,0.1-1.4,0.3
			c-0.4,0.2-0.6,0.5-0.6,0.8c0,0.2,0.1,0.4,0.2,0.6c0.1,0.2,0.4,0.4,0.8,0.6c0.4,0.2,0.9,0.4,1.6,0.6c0.8,0.2,1.4,0.5,1.8,0.7
			c0.5,0.2,0.8,0.5,1,0.8c0.2,0.3,0.3,0.7,0.3,1.1c0,0.5-0.1,1-0.4,1.4c-0.3,0.4-0.7,0.8-1.2,1s-1.3,0.4-2.1,0.4
			C63.3,293.2,62.8,293.1,62.3,293z"></path>
		<path class="st1" d="M70.1,283.9h6.6v1.2h-6.6V283.9z M73.3,292.9c-0.4-0.2-0.7-0.5-0.9-0.9c-0.2-0.4-0.3-1-0.4-1.6
			c-0.1-0.6-0.1-1.4,0-2.3l0.2-6.5l1.5-0.2l0.2,0l0,0.1c-0.1,0.1-0.1,0.2-0.2,0.3c0,0.1-0.1,0.3-0.1,0.5l-0.2,2.3l0.1,0.4l-0.1,3.3
			c0,1,0,1.8,0.1,2.4c0.1,0.6,0.3,0.9,0.5,1.1c0.2,0.2,0.6,0.3,1,0.3c0.4,0,0.8-0.1,1.2-0.3c0.3-0.2,0.7-0.4,1.1-0.7l0.4,1.1
			c-0.5,0.3-0.9,0.6-1.4,0.7s-1,0.2-1.5,0.2C74.1,293.2,73.7,293.1,73.3,292.9z"></path>
		<path class="st1" d="M84.2,293.2c-0.7,0-1.3-0.1-1.8-0.3c-0.5-0.2-1-0.5-1.4-0.9c-0.4-0.4-0.7-0.9-0.9-1.5c-0.2-0.6-0.3-1.3-0.3-2
			c0-0.8,0.1-1.5,0.3-2c0.2-0.6,0.5-1.1,0.9-1.5s0.8-0.7,1.3-0.9s1.1-0.3,1.6-0.3c0.5,0,1,0.1,1.5,0.3c0.5,0.2,0.8,0.4,1.2,0.8
			s0.6,0.8,0.8,1.3c0.2,0.5,0.3,1.2,0.3,1.9c0,0.1,0,0.2,0,0.3c0,0.1,0,0.2,0,0.3h-6.5c0,0.6,0.1,1.1,0.3,1.5c0.2,0.4,0.4,0.8,0.7,1
			c0.3,0.3,0.6,0.5,1,0.6s0.8,0.2,1.2,0.2c0.3,0,0.6,0,0.9-0.1c0.3-0.1,0.5-0.2,0.8-0.3s0.5-0.3,0.7-0.6l0.8,0.8
			c-0.3,0.3-0.5,0.6-0.9,0.8c-0.3,0.2-0.7,0.4-1.1,0.5C85.1,293.1,84.6,293.2,84.2,293.2z M81.2,287.5h5c0-0.4-0.1-0.8-0.2-1.1
			c-0.1-0.3-0.3-0.6-0.5-0.9c-0.2-0.2-0.5-0.4-0.7-0.6c-0.3-0.1-0.6-0.2-1-0.2c-0.3,0-0.6,0.1-0.9,0.2c-0.3,0.1-0.5,0.3-0.8,0.5
			c-0.2,0.2-0.4,0.5-0.6,0.9C81.3,286.6,81.2,287.1,81.2,287.5z"></path>
		<path class="st1" d="M100.1,283.9h6.6v1.2h-6.6V283.9z M103.3,292.9c-0.4-0.2-0.7-0.5-0.9-0.9c-0.2-0.4-0.3-1-0.4-1.6
			c-0.1-0.6-0.1-1.4,0-2.3l0.2-6.5l1.5-0.2l0.2,0l0,0.1c-0.1,0.1-0.1,0.2-0.2,0.3c0,0.1-0.1,0.3-0.1,0.5l-0.2,2.3l0.1,0.4l-0.1,3.3
			c0,1,0,1.8,0.1,2.4c0.1,0.6,0.3,0.9,0.5,1.1c0.2,0.2,0.6,0.3,1,0.3c0.4,0,0.8-0.1,1.2-0.3c0.3-0.2,0.7-0.4,1.1-0.7l0.4,1.1
			c-0.5,0.3-0.9,0.6-1.4,0.7s-1,0.2-1.5,0.2C104.1,293.2,103.7,293.1,103.3,292.9z"></path>
		<path class="st1" d="M110.2,279.7h1.4h0.2v0.1c-0.1,0.1-0.1,0.2-0.1,0.3s0,0.3,0,0.5v4.9c0.2-0.4,0.5-0.7,0.9-1s0.7-0.5,1-0.6
			c0.4-0.2,0.7-0.2,1.1-0.2c0.5,0,1,0.1,1.5,0.4s0.7,0.7,1,1.2c0.2,0.6,0.4,1.3,0.4,2.2v5.5H116v-5.5c0-0.6-0.1-1.1-0.2-1.5
			c-0.1-0.4-0.3-0.7-0.6-0.8c-0.3-0.2-0.5-0.2-0.9-0.2c-0.2,0-0.5,0-0.7,0.1s-0.5,0.2-0.7,0.4c-0.2,0.2-0.4,0.4-0.6,0.6
			c-0.2,0.2-0.3,0.5-0.4,0.8c-0.1,0.3-0.2,0.6-0.2,1v5.2h-1.4V279.7z"></path>
		<path class="st1" d="M124.2,293.2c-0.7,0-1.3-0.1-1.8-0.3c-0.5-0.2-1-0.5-1.4-0.9c-0.4-0.4-0.7-0.9-0.9-1.5
			c-0.2-0.6-0.3-1.3-0.3-2c0-0.8,0.1-1.5,0.3-2c0.2-0.6,0.5-1.1,0.9-1.5s0.8-0.7,1.3-0.9s1.1-0.3,1.6-0.3c0.5,0,1,0.1,1.5,0.3
			c0.5,0.2,0.8,0.4,1.2,0.8s0.6,0.8,0.8,1.3c0.2,0.5,0.3,1.2,0.3,1.9c0,0.1,0,0.2,0,0.3c0,0.1,0,0.2,0,0.3h-6.5
			c0,0.6,0.1,1.1,0.3,1.5c0.2,0.4,0.4,0.8,0.7,1c0.3,0.3,0.6,0.5,1,0.6s0.8,0.2,1.2,0.2c0.3,0,0.6,0,0.9-0.1
			c0.3-0.1,0.5-0.2,0.8-0.3s0.5-0.3,0.7-0.6l0.8,0.8c-0.3,0.3-0.5,0.6-0.9,0.8c-0.3,0.2-0.7,0.4-1.1,0.5
			C125.1,293.1,124.6,293.2,124.2,293.2z M121.2,287.5h5c0-0.4-0.1-0.8-0.2-1.1c-0.1-0.3-0.3-0.6-0.5-0.9c-0.2-0.2-0.5-0.4-0.7-0.6
			c-0.3-0.1-0.6-0.2-1-0.2c-0.3,0-0.6,0.1-0.9,0.2c-0.3,0.1-0.5,0.3-0.8,0.5c-0.2,0.2-0.4,0.5-0.6,0.9
			C121.3,286.6,121.2,287.1,121.2,287.5z"></path>
		<path class="st1" d="M141.1,293l-2-12.5h1.3l1.3,8.4l2-7.5h0.4l2,7.5l1.1-8.5h1.2l-2,12.5H146l-2.1-8.1l-2.2,8.1H141.1z"></path>
		<path class="st1" d="M153.7,293.2c-0.8,0-1.6-0.2-2.2-0.6c-0.6-0.4-1.1-1-1.5-1.7c-0.4-0.7-0.5-1.5-0.5-2.5c0-0.9,0.2-1.8,0.5-2.5
			c0.4-0.7,0.9-1.3,1.5-1.7c0.6-0.4,1.4-0.6,2.2-0.6s1.6,0.2,2.2,0.6c0.6,0.4,1.1,1,1.5,1.7c0.4,0.7,0.5,1.5,0.5,2.5
			c0,0.9-0.2,1.7-0.5,2.5c-0.4,0.7-0.9,1.3-1.5,1.7C155.3,293,154.6,293.2,153.7,293.2z M153.7,292c0.5,0,1-0.2,1.4-0.5
			s0.7-0.7,1-1.3c0.2-0.5,0.4-1.1,0.4-1.8s-0.1-1.3-0.4-1.8c-0.2-0.5-0.6-0.9-1-1.2c-0.4-0.3-0.9-0.4-1.4-0.4c-0.5,0-1,0.1-1.4,0.4
			c-0.4,0.3-0.7,0.7-1,1.2c-0.2,0.5-0.4,1.1-0.4,1.8s0.1,1.3,0.4,1.8s0.6,1,1,1.3S153.2,292,153.7,292z"></path>
		<path class="st1" d="M161.1,283.9h1.5l-0.1,2.7l-0.2-0.3c0.1-0.4,0.2-0.8,0.4-1.1c0.2-0.3,0.4-0.6,0.7-0.8
			c0.3-0.2,0.6-0.4,0.9-0.5c0.3-0.1,0.7-0.2,1-0.2c0.5,0,0.9,0.1,1.3,0.2s0.8,0.4,1.1,0.8l-0.6,1.1l-0.1,0.2l-0.1-0.1
			c0-0.1-0.1-0.2-0.1-0.3c-0.1-0.1-0.2-0.2-0.3-0.3c-0.2-0.1-0.4-0.2-0.6-0.3c-0.2,0-0.4-0.1-0.6-0.1c-0.3,0-0.7,0.1-1,0.2
			c-0.3,0.1-0.6,0.3-0.9,0.6c-0.3,0.3-0.5,0.6-0.6,1s-0.2,0.9-0.2,1.5v4.8h-1.5V283.9z"></path>
		<path class="st1" d="M170.3,293v-1.2h2.7v-11h-2.6v-1.2h4v12.1h2.7v1.2H170.3z"></path>
		<path class="st1" d="M182.1,292.9c-0.4-0.2-0.9-0.5-1.2-0.9c-0.4-0.4-0.7-0.9-0.9-1.5c-0.2-0.6-0.3-1.3-0.3-2.1
			c0-0.8,0.1-1.5,0.3-2.1c0.2-0.6,0.5-1.1,0.9-1.4c0.4-0.4,0.8-0.7,1.2-0.8s0.9-0.3,1.4-0.3c0.4,0,0.8,0.1,1.2,0.2
			c0.3,0.1,0.6,0.3,0.9,0.5c0.3,0.2,0.5,0.5,0.6,0.8v-5.5h1.3h0.2v0.1c-0.1,0.1-0.1,0.2-0.1,0.3c0,0.1,0,0.3,0,0.5l0,11
			c0,0.2,0,0.5,0,0.7s0.1,0.5,0.2,0.7h-1.4c-0.1-0.2-0.1-0.3-0.1-0.5c0-0.2,0-0.3,0-0.5c0-0.2,0-0.3,0-0.5c-0.2,0.3-0.4,0.6-0.7,0.8
			c-0.3,0.2-0.6,0.4-0.9,0.6c-0.3,0.1-0.7,0.2-1.1,0.2C183,293.2,182.5,293.1,182.1,292.9z M184.8,291.6c0.3-0.2,0.6-0.4,0.7-0.8
			c0.2-0.3,0.3-0.7,0.4-1.1c0.1-0.4,0.1-0.9,0.1-1.4c0-0.7-0.1-1.3-0.3-1.8c-0.2-0.5-0.4-1-0.8-1.3c-0.4-0.3-0.9-0.5-1.4-0.5
			c-0.4,0-0.8,0.1-1.1,0.2c-0.3,0.2-0.6,0.4-0.8,0.7c-0.2,0.3-0.4,0.6-0.5,1c-0.1,0.4-0.2,0.9-0.2,1.4c0,0.8,0.1,1.4,0.3,2
			c0.2,0.6,0.5,1,0.9,1.3s0.9,0.5,1.4,0.5C184.1,291.9,184.5,291.8,184.8,291.6z"></path>
	</g>
</g>
<rect id="SvgjsRect1000" x="197.7" y="286" class="st1" width="231" height="2"></rect>
</svg><style>@media (prefers-color-scheme: light) { :root { filter: none; } }
</style></svg>