<?xml version="1.0" encoding="utf-8"?>
<!-- Generator: Adobe Illustrator 28.0.0, SVG Export Plug-In . SVG Version: 6.00 Build 0)  -->
<svg version="1.1" id="Layer_1" xmlns="http://www.w3.org/2000/svg" xmlns:xlink="http://www.w3.org/1999/xlink" x="0px" y="0px"
	 viewBox="0 0 571.8 466.6" style="enable-background:new 0 0 571.8 466.6;" xml:space="preserve">
<style type="text/css">
	.st0{fill:#4D815A;}
</style>
<g id="DgA78J.tif">
	<g>
		<path class="st0" d="M294.9,450.4c-3,0-6.1,0-9.1,0c-6.5-1.6-11.9-5-16.9-9.4c-15.6-13.6-31.3-27-47-40.4
			c-27.5-23.5-55.2-46.8-81.4-71.8c-24.6-23.5-47.7-48.2-64.2-78.3c-18.5-33.7-24.3-69.4-16.9-107C70.5,86.9,112,43.9,167.7,35.6
			c24.3-3.6,47.9-1,70.2,9.7c19.8,9.4,35.8,23.3,49.1,40.5c2.4,3.1,4,3.4,6.5,0.1c2.9-3.9,6.1-7.6,9.4-11.1
			c31.9-33.6,70.7-47.3,116.1-37.9c48.4,10,79.6,40.6,96.6,86.4c4.2,11.5,6.2,23.4,8,35.4c0,10.6,0,21.3,0,31.9
			c-0.2,1.2-0.5,2.4-0.7,3.6c-3.5,26.1-13.4,49.6-27.8,71.4c-18.2,27.6-41.4,50.8-65.6,73c-38.1,34.9-77.9,67.7-116.9,101.6
			C307.5,444.8,301.9,448.8,294.9,450.4z M187.5,62.5c-2.4,0.2-4.8,0.5-7.3,0.6c-23.1,1.3-43.2,9.7-59.9,25.5
			c-29,27.3-38.1,61.9-34.6,100.4c2,22.1,10.8,41.9,23,60.2c18.4,27.7,42,50.8,66.5,72.9c36.6,33,74.4,64.5,111.6,96.7
			c2.6,2.2,4.2,2.5,6.8,0.1c34.6-30.1,69.9-59.5,104.2-90c22.8-20.3,45-41.3,63.9-65.5c22.2-28.5,36.3-59.8,33.7-97
			c-2.1-30.8-13-57.5-35.9-78.8c-30.2-28.1-78.1-33.2-113.3-11.8c-16.3,9.9-29.1,23.6-38.6,39.9c-8.7,14.8-26.1,14.8-34.2,0.1
			c-4.6-8.3-10.7-15.5-17.2-22.4C237.4,74,215,62.7,187.5,62.5z"/>
	</g>
</g>
</svg>
